<svg xmlns="http://www.w3.org/2000/svg" xmlns:svg="http://www.w3.org/2000/svg" id="svg913" width="167.993" height="168.699" overflow="hidden" version="1.1" style="overflow:hidden"><metadata id="metadata917"/><defs id="defs889"><clipPath id="clip0"><rect id="rect886" width="227" height="227" x="0" y="0"/></clipPath></defs><path style="fill:#c00000" id="path893" d="m 142.979,87.035 14.955,15.411 -0.958,0.929 -14.955,-15.41 z m 16.419,12.13 2.703,8.533 -8.448,-2.957 z"/><path style="fill:none;fill-rule:evenodd;stroke:red;stroke-width:3.00219989;stroke-miterlimit:8" id="path895" stroke-miterlimit="8" d="M 167,67.5 53.499991,167.57299"/><path style="fill:#262626;fill-rule:evenodd;stroke:#d9d9d9;stroke-width:1.33431005;stroke-miterlimit:8" id="path897" stroke-miterlimit="8" d="M 29.3397,41.3611 96.647,3.5 129.5,29.2777 117.481,111.444 48.5705,148.5 4.5,138.833 Z"/><path style="fill:#d9d9d9;fill-rule:evenodd" id="path899" d="m 125,29 c 0,-2.2092 1.791,-4 4,-4 2.209,0 4,1.7908 4,4 0,2.2091 -1.791,4 -4,4 -2.209,0 -4,-1.7909 -4,-4 z"/><path style="fill:#d9d9d9;fill-rule:evenodd" id="path901" d="m 113,111 c 0,-2.209 1.791,-4 4,-4 2.209,0 4,1.791 4,4 0,2.209 -1.791,4 -4,4 -2.209,0 -4,-1.791 -4,-4 z"/><path style="fill:#d9d9d9;fill-rule:evenodd" id="path903" d="m 45.0001,147.5 c 0,-2.485 1.7908,-4.5 4,-4.5 2.2091,0 3.9999,2.015 3.9999,4.5 0,2.485 -1.7908,4.5 -3.9999,4.5 -2.2092,0 -4,-2.015 -4,-4.5 z"/><path style="fill:#d9d9d9;fill-rule:evenodd" id="path905" d="m 0,138 c 0,-2.209 1.7908,-4 4,-4 2.2091,0 4,1.791 4,4 0,2.209 -1.7909,4 -4,4 -2.2092,0 -4,-1.791 -4,-4 z"/><path style="fill:#d9d9d9;fill-rule:evenodd" id="path907" d="m 26,41 c 0,-2.2092 1.7908,-4.0001 4,-4.0001 2.2091,0 4,1.7909 4,4.0001 0,2.2092 -1.7909,4 -4,4 -2.2092,0 -4,-1.7908 -4,-4 z"/><path style="fill:#d9d9d9;fill-rule:evenodd" id="path909" d="M 92,4.5 C 92,2.0147 93.791,0 96,0 c 2.209,0 4,2.0147 4,4.5 C 100,6.9852 98.209,9 96,9 93.791,9 92,6.9852 92,4.5 Z"/></svg>