<svg xmlns="http://www.w3.org/2000/svg" xmlns:svg="http://www.w3.org/2000/svg" id="svg41" width="605" height="302" overflow="hidden" version="1.1"><metadata id="metadata45"/><defs id="defs5"><clipPath id="clip0"><rect id="rect2" width="605" height="302" x="0" y="0"/></clipPath></defs><rect style="fill:#1d6fa9;stroke:#12507b;stroke-width:1.33296251;stroke-miterlimit:8" id="rect9" width="42.533" height="21.235" x="1.872" y="191.007" stroke-miterlimit="8" transform="rotate(-13.988246)"/><rect style="fill:#d62728;stroke:#9d1a1a;stroke-width:1.3329649;stroke-miterlimit:8" id="rect11" width="43" height="21.964" x="220.5" y="151.25" stroke-miterlimit="8"/><path style="fill:none;fill-rule:evenodd;stroke:#ff7f0e;stroke-width:1.99944746;stroke-miterlimit:8" id="path13" stroke-miterlimit="8" d="m 92,179.7025 c 26.09505,-28.431 52.19009,-56.862 96.52366,-71.1716 44.33378,-14.309631 106.90547,-14.497915 169.47717,-14.6862"/><path style="fill:none;fill-rule:evenodd;stroke:#2ca02c;stroke-width:1.99944746;stroke-miterlimit:8" id="path15" stroke-miterlimit="8" d="m 92,181.6993 c 52.26882,-25.823 104.53724,-51.646 150.03765,-62.64645 45.50041,-11.00043 84.23159,-7.17825 122.96378,-3.35606"/><path style="fill:none;fill-rule:evenodd;stroke:#d62728;stroke-width:1.99944746;stroke-miterlimit:8" id="path17" stroke-miterlimit="8" d="m 94,180.7006 c 29.42116,-8.0919 58.84232,-16.18371 80.34245,-19.65164 21.50033,-3.46794 35.07883,-2.31196 48.65834,-1.15598"/><path style="fill:none;fill-rule:evenodd;stroke:#2ca02c;stroke-width:1.99944746;stroke-miterlimit:8" id="path19" stroke-miterlimit="8" d="m 92,183.8534 c 63.5361,-15.8762 118.12576,-0.59309 129.70395,1.12731 19.74773,2.93449 73.3105,16.90959 117.29739,23.67339"/><path style="fill:none;fill-rule:evenodd;stroke:#ff7f0e;stroke-width:1.99944746;stroke-miterlimit:8" id="path21" stroke-miterlimit="8" d="m 91,184.694 c 42.01273,1.96166 84.02545,3.92333 125.19248,14.5724 41.16622,10.649 81.48804,29.9854 121.80886,49.3218"/></svg>