<svg xmlns="http://www.w3.org/2000/svg" xmlns:svg="http://www.w3.org/2000/svg" id="svg49" width="605" height="454" overflow="hidden" version="1.1"><metadata id="metadata53"/><defs id="defs5"><clipPath id="clip0"><rect id="rect2" width="605" height="454" x="0" y="0"/></clipPath></defs><path style="fill:#70ad47;fill-opacity:.50196084;fill-rule:evenodd;stroke-width:1.00027502" id="path33" d="m 93,371.20425 c 0,-19.34063 28.2061,-35.01925 63,-35.01925 34.794,0 63,15.67862 63,35.01925 0,19.34053 -28.206,35.01915 -63,35.01915 -34.7939,0 -63,-15.67862 -63,-35.01915 z"/><text style="font-weight:400;font-size:19.00522423px;font-family:Calibri,Calibri_MSFontService,sans-serif;fill:#fff;stroke-width:1.00027502" id="text35" x="122.695" y="376.896" font-size="19" font-weight="400" transform="scale(0.99972511,1.000275)">Cautious</text><text style="font-weight:400;font-size:19.00522423px;font-family:Calibri,Calibri_MSFontService,sans-serif;fill:#fff;stroke-width:1.00027502" id="text43" x="404.341" y="144.96" font-size="19" font-weight="400" transform="scale(0.99972511,1.000275)"><tspan style="font-size:21.00577354px;stroke-width:1.00027502" id="tspan39" x="54.688" y="238.934" font-size="21">robust</tspan></text><text style="font-weight:400;font-size:19.00522423px;font-family:Calibri,Calibri_MSFontService,sans-serif;fill:#fff;stroke-width:1.00027502" id="text4672" x="402.3" y="163.319" font-size="19" font-weight="400" transform="scale(0.99972509,1.000275)"><tspan style="font-size:21.00577354px;stroke-width:1.00027502" id="tspan4674" x="52.647" y="257.293" font-size="21">approach</tspan></text><path style="fill:#fff;stroke-width:1.00027502" id="path45" d="m 84.87944,275.06037 25.58316,59.71563 -2.7588,1.18325 -25.58324,-59.71562 z m 27.75076,57.15222 -0.5905,10.05603 -7.6861,-6.50628 z"/>/&gt;</svg>