<svg xmlns="http://www.w3.org/2000/svg" xmlns:svg="http://www.w3.org/2000/svg" id="svg364" width="144" height="99" fill="none" version="1.1" viewBox="0 0 144 99"><metadata id="metadata368"/><g id="g1270" transform="matrix(1.3405097,0,0,1.3405097,-24.922486,-9.7915656)"><path id="path2" d="m 69.1,46.639 v -6.6113 l 2.8,-4.6667 v 6.6113 z" style="fill:#c4c4c4;stroke:#000;stroke-width:.2"/><path id="path4" d="m 72.1,41.639 v -6.6113 l 2.8,-4.6667 v 6.6113 z" style="fill:#c4c4c4;stroke:#000;stroke-width:.2"/><path id="path6" d="m 75.1,36.639 v -6.6113 l 2.8,-4.6667 v 6.6113 z" style="fill:#c4c4c4;stroke:#000;stroke-width:.2"/><path id="path8" d="m 75.1,36.639 v -6.6113 l 2.8,-4.6667 v 6.6113 z" style="fill:#c4c4c4;stroke:#000;stroke-width:.2"/><path id="path10" d="m 78.1,31.639 v -6.6113 l 2.8,-4.6667 v 6.6113 z" style="fill:#c4c4c4;stroke:#000;stroke-width:.2"/><path id="path12" d="m 69.1,52.639 v -6.6113 l 2.8,-4.6667 v 6.6113 z" style="fill:#c4c4c4;stroke:#000;stroke-width:.2"/><path id="path14" d="m 72.1,47.639 v -6.6113 l 2.8,-4.6667 v 6.6113 z" style="fill:#565656;stroke:#000;stroke-width:.2"/><path id="path16" d="m 75.1,42.639 v -6.6113 l 2.8,-4.6667 v 6.6113 z" style="fill:#c4c4c4;stroke:#000;stroke-width:.2"/><path id="path18" d="m 75.1,42.639 v -6.6113 l 2.8,-4.6667 v 6.6113 z" style="fill:#c4c4c4;stroke:#000;stroke-width:.2"/><path id="path20" d="m 78.1,37.639 v -6.6113 l 2.8,-4.6667 v 6.6113 z" style="fill:#c4c4c4;stroke:#000;stroke-width:.2"/><path id="path22" d="m 69.1,59.639 v -6.6113 l 2.8,-4.6667 v 6.6113 z" style="fill:#c4c4c4;stroke:#000;stroke-width:.2"/><path id="path24" d="m 72.1,54.639 v -6.6113 l 2.8,-4.6667 v 6.6113 z" style="fill:#c4c4c4;stroke:#000;stroke-width:.2"/><path id="path26" d="m 75.1,49.639 v -6.6113 l 2.8,-4.6667 v 6.6113 z" style="fill:#c4c4c4;stroke:#000;stroke-width:.2"/><path id="path28" d="m 75.1,49.639 v -6.6113 l 2.8,-4.6667 v 6.6113 z" style="fill:#c4c4c4;stroke:#000;stroke-width:.2"/><path id="path30" d="m 78.1,44.639 v -6.6113 l 2.8,-4.6667 v 6.6113 z" style="fill:#c4c4c4;stroke:#000;stroke-width:.2"/><path id="path32" d="m 69.1,65.639 v -6.6113 l 2.8,-4.6667 v 6.6113 z" style="fill:#c4c4c4;stroke:#000;stroke-width:.2"/><path id="path34" d="m 72.1,60.639 v -6.6113 l 2.8,-4.6667 v 6.6113 z" style="fill:#c4c4c4;stroke:#000;stroke-width:.2"/><path id="path36" d="m 75.1,55.639 v -6.6113 l 2.8,-4.6667 v 6.6113 z" style="fill:#c4c4c4;stroke:#000;stroke-width:.2"/><path id="path38" d="m 75.1,55.639 v -6.6113 l 2.8,-4.6667 v 6.6113 z" style="fill:#c4c4c4;stroke:#000;stroke-width:.2"/><path id="path40" d="m 78.1,50.639 v -6.6113 l 2.8,-4.6667 v 6.6113 z" style="fill:#444;stroke:#000;stroke-width:.2"/><path id="path42" d="M 75.1,49.639 V 36.0277 l 5.8,-9.6667 v 13.6113 z" style="fill:#ff7f2a;fill-opacity:.6;stroke:#000;stroke-width:.2"/><path id="path44" d="M 81,26.5 95,36 v 4 L 93.7879,42 75,49 V 36 Z" style="fill:#ff7f2a;fill-opacity:.3"/><path id="path46" d="M 95,36 81,26.5 75,36 m 20,0 v 4 l -1.2121,2 M 95,36 93.7879,37.5 m 0,4.5 L 75,49 V 36 m 18.7879,6 V 37.5 M 75,36 93.7879,37.5" style="stroke:#000;stroke-width:.2"/><path id="path48" d="M 90.1,63.6 V 37.775 L 99.9,19.4 v 25.825 z" style="fill:#c4c4c4;fill-opacity:.6;stroke:#000;stroke-width:.2"/><path id="path50" d="M 95.1,63.6 V 37.775 L 104.9,19.4 v 25.825 z" style="fill:#c4c4c4;stroke:#000;stroke-width:.2"/><path id="path52" d="m 100,19 h 5 L 95,38 V 64 H 90 V 38 Z" style="fill:#c4c4c4;fill-opacity:.3"/><path id="path54" d="m 90,38 10,-19 h 5 L 95,38 m -5,0 v 26 h 5 V 38 m -5,0 h 5" style="stroke:#000;stroke-width:.2"/><path id="path56" d="M 111.1,64.6 V 38.775 L 120.9,20.4 v 25.825 z" style="fill:#c4c4c4;fill-opacity:.6;stroke:#000;stroke-width:.2"/><path id="path58" d="M 116.1,64.6 V 38.775 L 125.9,20.4 v 25.825 z" style="fill:#c4c4c4;stroke:#000;stroke-width:.2"/><path id="path60" d="m 121,20 h 5 l -10,19 v 26 h -5 V 39 Z" style="fill:#c4c4c4;fill-opacity:.3"/><path id="path62" d="m 111,39 10,-19 h 5 l -10,19 m -5,0 v 26 h 5 V 39 m -5,0 h 5" style="stroke:#000;stroke-width:.2"/><path id="path64" d="m 102,36 14,9.5 v 4 l -1.212,2 -18.788,7 v -13 z" style="fill:#ff7f2a;fill-opacity:.3"/><path id="path66" d="M 116,45.5 102,36 96,45.5 m 20,0 v 4 l -1.212,2 m 1.212,-6 -1.212,1.5 m 0,4.5 -18.788,7 v -13 m 18.788,6 V 47 M 96,45.5 114.788,47" style="stroke:#000;stroke-width:.2"/><path id="path68" d="m 20,40.9756 c 3.6441,0.3727 6.3885,0.1897 8.8367,-0.1175 4.234,-0.5312 7.5819,-1.4338 13.1653,-0.4746" style="opacity:.97000002;stroke:url(#paint0_linear);stroke-width:2;stroke-linecap:round"/><path id="path70" d="m 44.4705,37 c -0.0167,1e-4 -0.0523,0.0037 -0.0717,0.0114 l -0.0388,0.0182 0.096,0.4363 -1.3843,0.0034 c -0.027,1e-4 -0.0542,-10e-5 -0.0814,-3e-4 -0.0545,-4e-4 -0.1094,-0.0013 -0.1646,-0.0027 -0.0809,-0.002 -0.1627,-0.005 -0.2447,-0.0087 -0.0044,-2e-4 -0.0088,-6e-4 -0.0132,-8e-4 C 42.4022,37.4492 42.235,37.4387 42.0684,37.4272 41.843,37.4117 41.619,37.3944 41.4016,37.3802 41.2405,37.3697 41.083,37.361 40.9317,37.3559 40.8278,37.3524 40.7269,37.3504 40.6295,37.351 c -0.0479,3e-4 -0.0951,0.0011 -0.1411,0.0026 -0.046,0.0015 -0.0929,0.0043 -0.1404,0.008 -0.0237,0.0018 -0.0474,0.0038 -0.0714,0.0061 -0.0717,0.0069 -0.1446,0.016 -0.2173,0.0265 -1e-4,0 -2e-4,0 -3e-4,0 -0.0485,0.007 -0.0967,0.0149 -0.1449,0.0232 -0.0481,0.0082 -0.0962,0.0169 -0.1435,0.0261 -0.0471,0.0092 -0.0939,0.0191 -0.1396,0.0289 -1e-4,0 -3e-4,0 -4e-4,0 -0.0229,0.0049 -0.0451,0.0097 -0.0675,0.0148 -0.0673,0.0151 -0.1324,0.0305 -0.1941,0.0459 -1e-4,0 -3e-4,0 -4e-4,0 -0.0412,0.0103 -0.0808,0.0203 -0.1188,0.0303 -0.0762,0.0201 -0.1455,0.0393 -0.2056,0.0566 -0.0901,0.0259 -0.1595,0.0477 -0.2006,0.0607 -0.0275,0.0087 -0.0423,0.0136 -0.0423,0.0136 l -0.1518,0.0456 c -0.01,0.003 -0.0197,0.0084 -0.0291,0.0159 -0.0032,0.0026 -0.0063,0.0053 -0.0094,0.0084 -0.0122,0.0119 -0.0238,0.0275 -0.035,0.0466 0,10e-5 10e-5,3e-4 0,4e-4 -0.0055,0.0095 -0.0113,0.0199 -0.0166,0.0311 -10e-5,10e-5 0,3e-4 0,4e-4 -0.0053,0.0112 -0.0106,0.0232 -0.0156,0.036 -10e-5,2e-4 0,3e-4 0,4e-4 -0.0407,0.1033 -0.0734,0.2566 -0.0991,0.4398 -10e-5,1e-4 0,2e-4 0,4e-4 -4e-4,0.0028 -7e-4,0.0058 -0.0011,0.0087 -0.0056,0.0404 -0.011,0.0825 -0.0159,0.1256 -4e-4,0.0029 -7e-4,0.0057 -0.0011,0.0087 -0.0055,0.0491 -0.0105,0.0996 -0.0152,0.1514 0,10e-5 0,2e-4 0,4e-4 -0.0024,0.0258 -0.0048,0.0521 -0.0069,0.0785 0,1e-4 0,3e-4 0,4e-4 -0.0022,0.0264 -0.0043,0.0528 -0.0063,0.0797 0,10e-5 0,2e-4 0,3e-4 -0.0039,0.0539 -0.0075,0.1087 -0.0107,0.164 0,1e-4 0,2e-4 0,3e-4 -0.0097,0.1662 -0.0162,0.3374 -0.0198,0.5047 0,1e-4 0,2e-4 0,3e-4 -0.0024,0.1116 -0.0034,0.2212 -0.0034,0.3267 0,0.0118 3e-4,0.0239 3e-4,0.0357 0,0.0118 -3e-4,0.0239 -3e-4,0.0357 0,0.1055 10e-4,0.2151 0.0034,0.3266 0,2e-4 0,3e-4 0,4e-4 0.0036,0.1673 0.0101,0.3385 0.0198,0.5047 0,10e-5 0,2e-4 0,3e-4 0.0032,0.0553 0.0068,0.1101 0.0107,0.1639 0,2e-4 0,3e-4 0,4e-4 0.002,0.0269 0.0041,0.0533 0.0063,0.0797 0,10e-5 -10e-5,3e-4 0,4e-4 0.0021,0.0264 0.0045,0.0527 0.0069,0.0785 0,10e-5 0,3e-4 0,4e-4 0.0047,0.0518 0.0097,0.1023 0.0152,0.1514 4e-4,0.0029 7e-4,0.0058 0.0011,0.0087 0.0049,0.0431 0.0103,0.0852 0.0159,0.1256 4e-4,0.0029 7e-4,0.0059 0.0011,0.0087 0,2e-4 -10e-5,3e-4 0,4e-4 0.0257,0.1832 0.0584,0.3364 0.0991,0.4398 0,1e-4 -10e-5,2e-4 0,3e-4 0.005,0.0128 0.0103,0.0249 0.0156,0.0361 0,1e-4 -10e-5,3e-4 0,4e-4 0.0053,0.0112 0.0111,0.0216 0.0166,0.0311 10e-5,10e-5 0,3e-4 0,4e-4 0.0112,0.0191 0.0228,0.0347 0.035,0.0466 0.0031,0.0031 0.0062,0.0058 0.0094,0.0084 0.0094,0.0075 0.0191,0.0129 0.0291,0.0159 l 0.1518,0.0455 c 0,0 0.0148,0.005 0.0423,0.0137 0.0411,0.013 0.1105,0.0348 0.2006,0.0607 0.0601,0.0173 0.1294,0.0365 0.2055,0.0565 0.0381,0.0101 0.0777,0.0201 0.1189,0.0304 10e-5,0 3e-4,0 4e-4,0 0.0617,0.0154 0.1268,0.0308 0.1941,0.0459 0.0224,0.005 0.0446,0.0099 0.0675,0.0148 10e-5,0 3e-4,0 4e-4,0 0.0457,0.0098 0.0925,0.0197 0.1396,0.0288 0.0473,0.0092 0.0954,0.018 0.1435,0.0262 0.0482,0.0083 0.0964,0.0161 0.1449,0.0232 1e-4,0 2e-4,0 3e-4,0 0.0727,0.0105 0.1456,0.0196 0.2173,0.0265 0.024,0.0023 0.0477,0.0043 0.0714,0.0061 0.0475,0.0037 0.0944,0.0064 0.1404,0.008 0.046,0.0015 0.0932,0.0023 0.1411,0.0026 0.0974,6e-4 0.1983,-0.0014 0.3022,-0.0049 0.1513,-0.0051 0.3088,-0.0138 0.4699,-0.0243 0.2174,-0.0142 0.4414,-0.0315 0.6668,-0.047 0.1666,-0.0115 0.3338,-0.022 0.4994,-0.0296 0.0044,-2e-4 0.0088,-6e-4 0.0132,-8e-4 0.082,-0.0037 0.1638,-0.0067 0.2447,-0.0087 0.0552,-0.0014 0.1101,-0.0023 0.1646,-0.0027 0.0272,-2e-4 0.0544,-4e-4 0.0814,-4e-4 l 1.3843,0.0035 -0.096,0.4363 0.0388,0.0182 c 0.0194,0.0077 0.055,0.0113 0.0717,0.0114 0.0094,0 0.0195,-9e-4 0.0298,-0.003 0.0035,-8e-4 0.0069,-0.0018 0.0104,-0.0027 0.0034,-9e-4 0.007,-0.0019 0.0104,-0.003 0.007,-0.0024 0.014,-0.0052 0.0208,-0.0084 0.0202,-0.0096 0.0392,-0.0234 0.053,-0.0402 10e-5,-1e-4 3e-4,-3e-4 4e-4,-4e-4 0.0069,-0.0085 0.0123,-0.0176 0.0163,-0.0277 l 0.1348,-0.3802 1.2192,0.0031 c 0.0083,0.0045 0.0164,0.009 0.0246,0.0133 0.0331,0.0169 0.0656,0.0315 0.0981,0.044 0.0162,0.0062 0.0324,0.0118 0.0485,0.017 0.0566,0.0183 0.113,0.031 0.1702,0.0395 0.0327,0.0048 0.0657,0.0084 0.0991,0.011 0.0167,0.0013 0.0337,0.0022 0.0506,0.003 0.0339,0.0017 0.0681,0.0026 0.1033,0.0031 0.0704,9e-4 0.1439,0 0.2218,0 0.1155,0 0.2254,-0.0065 0.3303,-0.019 0.0419,-0.005 0.0831,-0.0109 0.1234,-0.0178 0.0806,-0.0139 0.1578,-0.0318 0.2318,-0.0532 0.0185,-0.0053 0.037,-0.0109 0.0551,-0.0166 0.0544,-0.0174 0.1066,-0.0368 0.1574,-0.0581 0.0169,-0.0071 0.0337,-0.0141 0.0502,-0.0216 0.0331,-0.0151 0.0653,-0.0311 0.0967,-0.0478 0.0157,-0.0084 0.0315,-0.017 0.0468,-0.0258 0.0307,-0.0176 0.0606,-0.0362 0.0898,-0.0554 0.0145,-0.0096 0.0288,-0.0196 0.0429,-0.0296 0.071,-0.05 0.1372,-0.1048 0.1986,-0.1643 0.0491,-0.0476 0.0954,-0.0981 0.1387,-0.1514 0,-10e-5 -10e-5,-3e-4 0,-4e-4 0.0107,-0.0133 0.0214,-0.0266 0.0318,-0.0402 10e-5,-10e-5 0,-3e-4 0,-4e-4 0.0104,-0.0136 0.0208,-0.0274 0.0309,-0.0413 0,-1e-4 -10e-5,-3e-4 0,-4e-4 0.0302,-0.042 0.0589,-0.0852 0.0859,-0.1302 10e-5,0 0,-2e-4 0,-3e-4 0.009,-0.015 0.0181,-0.03 0.0267,-0.0452 1e-4,-1e-4 0,-3e-4 0,-4e-4 0.026,-0.0458 0.0507,-0.0929 0.0735,-0.1415 0,-1e-4 0,-3e-4 0,-4e-4 0.0076,-0.0161 0.0149,-0.0325 0.0222,-0.0489 0,-1e-4 -10e-5,-3e-4 0,-4e-4 0.0072,-0.0164 0.0146,-0.033 0.0215,-0.0497 0,-10e-5 -1e-4,-3e-4 0,-4e-4 0.0138,-0.0335 0.027,-0.0674 0.0395,-0.102 0,-2e-4 -10e-5,-3e-4 0,-4e-4 0.0062,-0.0173 0.0121,-0.0348 0.018,-0.0524 0,-10e-5 0,-3e-4 0,-4e-4 0.0059,-0.0175 0.0118,-0.0353 0.0173,-0.0531 0.0056,-0.0178 0.0111,-0.0358 0.0163,-0.0539 0,-1e-4 0,-2e-4 0,-3e-4 0.0052,-0.0181 0.0104,-0.0363 0.0153,-0.0547 0,-1e-4 -1e-4,-2e-4 0,-4e-4 0.0048,-0.0183 0.0096,-0.0368 0.0142,-0.0553 0,-2e-4 -10e-5,-3e-4 0,-4e-4 0.0137,-0.056 0.0262,-0.113 0.0371,-0.1711 v -4e-4 c 0.0035,-0.0193 0.0067,-0.0389 0.01,-0.0585 v -3e-4 c 0.023,-0.1375 0.0384,-0.28 0.0461,-0.4276 0,-2e-4 0,-3e-4 0,-4e-4 0.0011,-0.021 0.002,-0.0422 0.0028,-0.0634 0,-1e-4 0,-2e-4 0,-4e-4 0.0016,-0.0424 0.0027,-0.085 0.0031,-0.1282 0,-1e-4 0,-3e-4 0,-4e-4 2e-4,-0.0216 1e-4,-0.0434 0,-0.0653 0,-0.0077 -3e-4,-0.0154 -4e-4,-0.0231 2e-4,-0.0077 4e-4,-0.0154 4e-4,-0.0231 1e-4,-0.0219 2e-4,-0.0437 0,-0.0653 0,-10e-5 0,-3e-4 0,-4e-4 -4e-4,-0.0431 -0.0015,-0.0858 -0.0031,-0.1282 0,-2e-4 0,-3e-4 0,-4e-4 -8e-4,-0.0212 -0.0017,-0.0424 -0.0028,-0.0634 0,-10e-5 0,-2e-4 0,-3e-4 -0.0077,-0.1476 -0.0231,-0.2902 -0.0461,-0.4277 v -3e-4 c -0.0033,-0.0196 -0.0065,-0.0392 -0.01,-0.0585 v -3e-4 c -0.0109,-0.0582 -0.0234,-0.1152 -0.0371,-0.1712 -10e-5,-1e-4 0,-2e-4 0,-3e-4 -0.0046,-0.0186 -0.0094,-0.0371 -0.0142,-0.0554 -1e-4,-2e-4 0,-3e-4 0,-4e-4 -0.0049,-0.0183 -0.0101,-0.0366 -0.0153,-0.0547 0,-1e-4 0,-2e-4 0,-3e-4 -0.0052,-0.0181 -0.0107,-0.0361 -0.0163,-0.0539 -0.0055,-0.0178 -0.0114,-0.0356 -0.0173,-0.0531 0,-1e-4 0,-3e-4 0,-4e-4 -0.0059,-0.0176 -0.0118,-0.0351 -0.018,-0.0524 -10e-5,-1e-4 0,-2e-4 0,-4e-4 -0.0125,-0.0346 -0.0257,-0.0685 -0.0395,-0.102 -1e-4,-1e-4 0,-3e-4 0,-4e-4 -0.0069,-0.0167 -0.0143,-0.0333 -0.0215,-0.0497 -10e-5,-10e-5 0,-3e-4 0,-4e-4 -0.0073,-0.0164 -0.0146,-0.0328 -0.0222,-0.0489 0,-10e-5 0,-3e-4 0,-4e-4 -0.0228,-0.0486 -0.0475,-0.0957 -0.0735,-0.1415 0,-10e-5 1e-4,-3e-4 0,-4e-4 -0.0086,-0.0152 -0.0177,-0.0302 -0.0267,-0.0452 0,0 10e-5,-3e-4 0,-3e-4 -0.027,-0.045 -0.0557,-0.0882 -0.0859,-0.1302 -10e-5,-10e-5 0,-3e-4 0,-4e-4 -0.0101,-0.0139 -0.0205,-0.0277 -0.0309,-0.0413 0,-1e-4 10e-5,-3e-4 0,-4e-4 -0.0104,-0.0136 -0.0211,-0.0269 -0.0318,-0.0402 -10e-5,-1e-4 0,-3e-4 0,-4e-4 -0.0433,-0.0533 -0.0896,-0.1038 -0.1387,-0.1514 -0.0614,-0.0595 -0.1276,-0.1142 -0.1986,-0.1643 -0.0141,-0.01 -0.0284,-0.02 -0.0429,-0.0296 -0.0292,-0.0192 -0.0591,-0.0378 -0.0898,-0.0554 -0.0153,-0.0088 -0.0311,-0.0174 -0.0468,-0.0258 -0.0314,-0.0167 -0.0636,-0.0327 -0.0967,-0.0478 -0.0165,-0.0075 -0.0333,-0.0145 -0.0502,-0.0216 -0.0508,-0.0213 -0.103,-0.0407 -0.1574,-0.058 -0.0181,-0.0058 -0.0366,-0.0114 -0.0551,-0.0167 -0.074,-0.0214 -0.1512,-0.0393 -0.2318,-0.0532 -0.0403,-0.0069 -0.0815,-0.0128 -0.1234,-0.0178 -0.1049,-0.0125 -0.2148,-0.019 -0.3303,-0.019 -0.0779,0 -0.1514,-9e-4 -0.2218,0 -0.0352,5e-4 -0.0694,0.0014 -0.1033,0.0031 -0.0169,8e-4 -0.0339,0.0017 -0.0506,0.003 -0.0334,0.0026 -0.0664,0.0061 -0.0991,0.011 -0.0572,0.0085 -0.1136,0.0211 -0.1702,0.0395 -0.0161,0.0052 -0.0323,0.0108 -0.0485,0.017 -0.0325,0.0125 -0.065,0.027 -0.0981,0.044 -0.0082,0.0043 -0.0163,0.0088 -0.0246,0.0133 l -1.2192,0.0031 -0.1348,-0.3802 c -0.004,-0.0101 -0.0094,-0.0193 -0.0163,-0.0277 -1e-4,-2e-4 -3e-4,-3e-4 -4e-4,-4e-4 -0.0138,-0.0168 -0.0328,-0.0306 -0.053,-0.0402 -0.0068,-0.0033 -0.0138,-0.006 -0.0208,-0.0084 -0.0034,-0.0011 -0.007,-0.0021 -0.0104,-0.003 -0.0035,-9e-4 -0.0069,-0.002 -0.0104,-0.0027 C 44.49,37.0009 44.4799,36.9999 44.4705,37 Z" style="fill:#000;fill-opacity:.99607801;stroke:#191919;stroke-width:.0586309"/><path id="path72" d="m 44.4705,37 c -0.0167,1e-4 -0.0523,0.0037 -0.0717,0.0114 l -0.0388,0.0182 0.096,0.4352 -1.3843,0.0034 c -0.8646,0.002 -1.8468,-0.1397 -2.5833,-0.1153 -0.7365,0.0243 -1.6871,0.3399 -1.6871,0.3399 l -0.1518,0.0459 c -0.2135,0.0643 -0.2852,1.1822 -0.2852,2.025 0,0.0135 3e-4,0.0274 3e-4,0.041 0,0.0136 -3e-4,0.0275 -3e-4,0.041 0,0.8428 0.0717,1.9607 0.2852,2.025 l 0.1518,0.0459 c 0,0 0.9506,0.3156 1.6871,0.3399 0.7365,0.0244 1.7187,-0.1173 2.5833,-0.1153 l 1.3843,0.0034 -0.096,0.4352 0.0388,0.0182 c 0.0194,0.0077 0.055,0.0113 0.0717,0.0114 0.0094,10e-5 0.0195,-9e-4 0.0298,-0.003 0.0035,-8e-4 0.0069,-0.0018 0.0104,-0.0027 0.0034,-9e-4 0.007,-0.0019 0.0104,-0.003 0.007,-0.0024 0.014,-0.0052 0.0208,-0.0084 0.0202,-0.0096 0.0392,-0.0231 0.053,-0.0398 10e-5,-2e-4 3e-4,-3e-4 4e-4,-4e-4 0.0069,-0.0085 0.0123,-0.0176 0.0163,-0.0277 l 0.1348,-0.3794 1.2192,0.003 c 0.2651,0.145 0.5048,0.1302 0.8162,0.1302 1.4778,0 2.0809,-1.0513 2.0739,-2.445 0,-0.0095 -2e-4,-0.0191 -4e-4,-0.0285 2e-4,-0.0094 4e-4,-0.019 4e-4,-0.0285 0.007,-1.3937 -0.5961,-2.445 -2.0739,-2.445 -0.3114,0 -0.5511,-0.0148 -0.8162,0.1302 l -1.2192,0.003 -0.1348,-0.3794 c -0.004,-0.0101 -0.0094,-0.0192 -0.0163,-0.0277 -1e-4,-10e-5 -3e-4,-3e-4 -4e-4,-4e-4 -0.0138,-0.0167 -0.0328,-0.0302 -0.053,-0.0398 -0.0068,-0.0032 -0.0138,-0.006 -0.0208,-0.0084 -0.0034,-0.0011 -0.007,-0.0021 -0.0104,-0.003 -0.0035,-9e-4 -0.0069,-0.002 -0.0104,-0.0027 C 44.49,37.0009 44.4799,36.9999 44.4705,37 Z" style="fill:#ca0000;fill-opacity:.99607801"/><path id="path74" d="m 42.1395,41.3894 c -0.37,0 -0.7243,0.0219 -1.0515,0.0615 0.2846,0.5914 1.0867,0.3674 2.2798,0.3828 0.551,0.0071 0.993,0.0228 1.3478,0.0288 -0.523,-0.2833 -1.4809,-0.4731 -2.5761,-0.4731 z" style="opacity:.9;fill:#262626;fill-opacity:.99607801"/><path id="path76" d="m 42.1395,41.3894 c -0.0356,0 -0.0708,4e-4 -0.1061,8e-4 0.0091,0.1963 0.0713,0.3674 0.1619,0.4716 0.0518,-9e-4 0.1053,-0.0024 0.1601,-0.0042 -0.095,-0.0994 -0.1618,-0.2698 -0.1743,-0.4682 -0.0139,0 -0.0277,0 -0.0416,0 z" style="opacity:.5;fill:#000;fill-opacity:.99607801"/><path id="path78" d="m 48.6682,41.0532 -0.0565,0.0072 c -0.2389,0.0305 -0.4179,0.3155 -0.4356,0.6621 l -0.0042,0.0865 0.0583,-0.0588 c 0.1762,-0.1782 0.3139,-0.3947 0.4148,-0.6404 z" style="fill:#212121;stroke:#191919;stroke-width:.0209396"/><path id="path80" d="m 46.3886,41.1864 c 0,0 0.8836,-0.2744 1.1687,-0.3884 0.2976,-0.119 1.0963,-0.4752 1.0963,-0.4752 0,0 -0.0969,0.5156 -0.338,0.7032 -0.8565,0.6662 -2.5806,0.6538 -2.5806,0.6538" style="opacity:.5;stroke:#292929;stroke-width:.0251275;stroke-linecap:round;stroke-linejoin:round"/><path id="path82" d="m 47.3478,40.9355 -0.0492,0.0285 c 0.011,0.014 0.0199,0.0295 0.0264,0.0467 0.0532,0.1422 -0.1191,0.3549 -0.2981,0.4344 -0.0057,0.0026 -0.0201,0.0102 -0.0378,0.0201 l 0.1511,-0.047 c 0.192,-0.1027 0.3047,-0.2803 0.2551,-0.4128 -0.0101,-0.0272 -0.0263,-0.0506 -0.0475,-0.0699 z" style="fill:url(#paint1_linear)"/><path id="path84" d="m 47.4431,40.8818 -0.0492,0.0285 c 0.011,0.014 0.0199,0.0295 0.0263,0.0467 0.0533,0.1422 -0.119,0.3549 -0.298,0.4344 -0.0057,0.0025 -0.0201,0.0102 -0.0378,0.0201 l 0.1511,-0.047 c 0.1919,-0.1027 0.3047,-0.2803 0.2551,-0.4129 -0.0102,-0.0271 -0.0263,-0.0505 -0.0475,-0.0698 z" style="fill:url(#paint2_linear)"/><path id="path86" d="m 47.5117,40.864 -0.0492,0.0285 c 0.011,0.014 0.0199,0.0295 0.0263,0.0466 0.0533,0.1423 -0.119,0.355 -0.298,0.4345 -0.0057,0.0025 -0.0201,0.0102 -0.0378,0.0201 l 0.1511,-0.0471 C 47.496,41.244 47.6088,41.0664 47.5592,40.9338 47.549,40.9067 47.5329,40.8832 47.5117,40.864 Z" style="fill:url(#paint3_linear)"/><path id="path88" d="m 47.6992,40.8123 -0.0686,0.0223 c 0.0106,0.0208 0.0183,0.0429 0.0225,0.0664 0.0346,0.1947 -0.2325,0.4163 -0.4772,0.4675 -0.0377,0.0079 -0.3204,0.1041 -0.3567,0.1069 v 0.0501 l 0.4596,-0.1475 c 0.2915,-0.0668 0.4985,-0.2726 0.4644,-0.4644 -0.0066,-0.0372 -0.0217,-0.0712 -0.044,-0.1013 z" style="fill:url(#paint4_linear)"/><path id="path90" d="m 47.6992,40.8123 -0.0686,0.0223 c 0.0106,0.0208 0.0183,0.0429 0.0225,0.0664 0.0346,0.1947 -0.2325,0.4163 -0.4772,0.4675 -0.0377,0.0079 -0.3204,0.1041 -0.3567,0.1069 v 0.0501 l 0.4596,-0.1475 c 0.2915,-0.0668 0.4985,-0.2726 0.4644,-0.4644 -0.0066,-0.0372 -0.0217,-0.0712 -0.044,-0.1013 z" style="fill:url(#paint5_linear)"/><path id="path92" d="m 47.2054,40.9917 -0.044,0.0254 c 0.0098,0.0126 0.0178,0.0264 0.0236,0.0417 0.0475,0.1271 -0.1064,0.3171 -0.2663,0.3881 -0.0051,0.0023 -0.018,0.0091 -0.0338,0.018 l 0.135,-0.0421 c 0.1715,-0.0917 0.2722,-0.2503 0.2279,-0.3687 -0.0091,-0.0243 -0.0235,-0.0452 -0.0424,-0.0624 z" style="fill:url(#paint6_linear)"/><path id="path94" d="m 47.0522,41.0349 -0.0439,0.0254 c 0.0098,0.0126 0.0178,0.0264 0.0235,0.0417 0.0475,0.1271 -0.1063,0.3171 -0.2662,0.3881 -0.0052,0.0023 -0.018,0.0091 -0.0338,0.018 l 0.135,-0.042 c 0.1715,-0.0918 0.2722,-0.2504 0.2279,-0.3688 -0.0091,-0.0243 -0.0236,-0.0452 -0.0425,-0.0624 z" style="fill:url(#paint7_linear)"/><path id="path96" d="m 40.2865,41.2741 c 0.092,-0.0246 0.1718,-0.018 0.2196,0.0702 l -0.0277,0.2173 c -0.0762,0.075 -0.1525,0.0601 -0.2287,0.0019 z" style="fill:url(#paint8_linear)"/><path id="path98" d="m 40.5114,41.314 c 0.0904,-0.0147 0.1682,-0.0069 0.209,0.0669 l -0.0263,0.2068 c -0.0719,0.0361 -0.144,0.0633 -0.2177,0.0018 z" style="fill:url(#paint9_linear)"/><path id="path100" d="m 42.1395,41.3591 c -0.371,0 -0.7264,0.0218 -1.0546,0.0615 l -0.0406,0.0049 0.0191,0.0395 c 0.074,0.1538 0.1836,0.2563 0.3223,0.321 0.1386,0.0646 0.3058,0.0924 0.5001,0.1024 0.3886,0.0201 0.8867,-0.0319 1.4816,-0.0243 0.5507,0.0071 0.9927,0.0229 1.3478,0.0289 l 0.0125,-0.0577 C 44.197,41.5479 43.2376,41.3591 42.1395,41.3591 Z m 0,0.0607 c 1.0111,0 1.9047,0.1637 2.4409,0.4094 -0.3322,-0.007 -0.7232,-0.0195 -1.2123,-0.0258 -0.5982,-0.0077 -1.0977,0.0444 -1.4795,0.0247 -0.191,-0.0098 -0.3523,-0.0377 -0.4814,-0.0979 -0.116,-0.054 -0.205,-0.1354 -0.2717,-0.2538 0.3139,-0.0362 0.6514,-0.0566 1.004,-0.0566 z" style="opacity:.9;fill:#191919"/><path id="path102" d="m 40.5885,38.3799 -0.8622,0.1514 c -0.3012,0.0528 -0.5429,0.5921 -0.5657,1.2729 0.0228,0.6808 0.2645,1.2201 0.5657,1.273 l 0.8622,0.1514 c 0.1475,0 0.2662,-0.13 0.2662,-0.2914 v -2.2659 c 0,-0.1615 -0.1187,-0.2914 -0.2662,-0.2914 z" style="opacity:.9;fill:#262626;fill-opacity:.99607801;stroke:#191919;stroke-width:.0209396"/><path id="path104" d="m 45.3737,37.9648 c -0.0329,0 -0.0654,0.0041 -0.0974,0.0118 -10e-5,-10e-5 -2e-4,-2e-4 -3e-4,-4e-4 l -0.7081,0.1495 c -0.1966,0.0802 -0.3549,0.1733 -0.3549,0.3885 v 2.5809 c 0,0.2152 0.1583,0.3083 0.3549,0.3885 l 0.708,0.1495 c 2e-4,-10e-5 3e-4,-2e-4 4e-4,-4e-4 0.032,0.0078 0.0645,0.0118 0.0974,0.0118 0.5034,0 0.9116,-0.6965 0.9129,-1.8398 -0.0013,-1.1434 -0.4095,-1.8399 -0.9129,-1.8399 z" style="opacity:.9;fill:#262626;fill-opacity:.99607801;stroke:#191919;stroke-width:.0209396"/><path id="path106" d="m 42.1395,38.2203 c -0.37,0 -0.7243,-0.0219 -1.0515,-0.0615 0.2846,-0.5914 1.0867,-0.3674 2.2798,-0.3828 0.551,-0.0071 0.993,-0.0228 1.3478,-0.0289 -0.523,0.2834 -1.4809,0.4732 -2.5761,0.4732 z" style="opacity:.9;fill:#262626;fill-opacity:.99607801"/><path id="path108" d="m 42.1395,38.2195 c -0.0356,0 -0.0708,-4e-4 -0.1061,-8e-4 0.0091,-0.1963 0.0713,-0.3674 0.1619,-0.4716 0.0518,9e-4 0.1053,0.0024 0.1601,0.0041 -0.095,0.0995 -0.1618,0.2699 -0.1743,0.4683 -0.0139,0 -0.0277,0 -0.0416,0 z" style="opacity:.5;fill:#000;fill-opacity:.99607801"/><path id="path110" d="M 48.6682,38.5566 48.6117,38.5494 C 48.3728,38.5189 48.1938,38.234 48.1761,37.8873 l -0.0042,-0.0865 0.0583,0.0588 c 0.1762,0.1782 0.3139,0.3947 0.4148,0.6405 z" style="fill:#212121;stroke:#191919;stroke-width:.0209396"/><path id="path112" d="m 46.3886,38.4227 c 0,0 0.8836,0.2744 1.1687,0.3883 0.2976,0.119 1.0963,0.4753 1.0963,0.4753 0,0 -0.0969,-0.5157 -0.338,-0.7032 -0.8565,-0.6662 -2.5806,-0.6539 -2.5806,-0.6539" style="opacity:.5;stroke:#292929;stroke-width:.0251275;stroke-linecap:round;stroke-linejoin:round"/><path id="path114" d="m 47.3478,38.674 -0.0492,-0.0285 c 0.011,-0.014 0.0199,-0.0295 0.0264,-0.0467 0.0532,-0.1422 -0.1191,-0.3549 -0.2981,-0.4344 -0.0057,-0.0025 -0.0201,-0.0102 -0.0378,-0.0201 l 0.1511,0.047 c 0.192,0.1027 0.3047,0.2803 0.2551,0.4128 -0.0101,0.0272 -0.0263,0.0506 -0.0475,0.0699 z" style="fill:url(#paint10_linear)"/><path id="path116" d="m 47.4431,38.7277 -0.0492,-0.0285 c 0.011,-0.014 0.0199,-0.0295 0.0263,-0.0467 0.0533,-0.1422 -0.119,-0.3549 -0.298,-0.4344 -0.0057,-0.0025 -0.0201,-0.0102 -0.0378,-0.0201 l 0.1511,0.047 c 0.1919,0.1027 0.3047,0.2803 0.2551,0.4129 -0.0102,0.0271 -0.0263,0.0505 -0.0475,0.0698 z" style="fill:url(#paint11_linear)"/><path id="path118" d="m 47.5117,38.7453 -0.0492,-0.0285 c 0.011,-0.0141 0.0199,-0.0295 0.0263,-0.0467 0.0533,-0.1422 -0.119,-0.3549 -0.298,-0.4344 -0.0057,-0.0026 -0.0201,-0.0102 -0.0378,-0.0201 l 0.1511,0.047 c 0.1919,0.1027 0.3047,0.2803 0.2551,0.4128 -0.0102,0.0272 -0.0263,0.0506 -0.0475,0.0699 z" style="fill:url(#paint12_linear)"/><path id="path120" d="m 47.6992,38.7972 -0.0686,-0.0224 c 0.0106,-0.0208 0.0183,-0.0429 0.0225,-0.0664 0.0346,-0.1947 -0.2325,-0.4162 -0.4772,-0.4674 -0.0377,-0.0079 -0.3204,-0.1042 -0.3567,-0.1069 V 38.084 l 0.4596,0.1475 c 0.2915,0.0667 0.4985,0.2725 0.4644,0.4644 -0.0066,0.0372 -0.0217,0.0711 -0.044,0.1013 z" style="fill:url(#paint13_linear)"/><path id="path122" d="m 47.6992,38.7972 -0.0686,-0.0224 c 0.0106,-0.0208 0.0183,-0.0429 0.0225,-0.0664 0.0346,-0.1947 -0.2325,-0.4162 -0.4772,-0.4674 -0.0377,-0.0079 -0.3204,-0.1042 -0.3567,-0.1069 V 38.084 l 0.4596,0.1475 c 0.2915,0.0667 0.4985,0.2725 0.4644,0.4644 -0.0066,0.0372 -0.0217,0.0711 -0.044,0.1013 z" style="fill:url(#paint14_linear)"/><path id="path124" d="m 47.2054,38.6179 -0.044,-0.0254 c 0.0098,-0.0125 0.0178,-0.0263 0.0236,-0.0417 0.0475,-0.1271 -0.1064,-0.3171 -0.2663,-0.3881 -0.0051,-0.0022 -0.018,-0.0091 -0.0338,-0.0179 l 0.135,0.042 c 0.1715,0.0917 0.2722,0.2504 0.2279,0.3688 -0.0091,0.0242 -0.0235,0.0452 -0.0424,0.0623 z" style="fill:url(#paint15_linear)"/><path id="path126" d="m 47.0522,38.5742 -0.0439,-0.0254 c 0.0098,-0.0125 0.0178,-0.0263 0.0235,-0.0417 C 47.0793,38.38 46.9255,38.19 46.7656,38.119 46.7604,38.1168 46.7476,38.1099 46.7318,38.1011 l 0.135,0.042 c 0.1715,0.0917 0.2722,0.2504 0.2279,0.3688 -0.0091,0.0242 -0.0236,0.0452 -0.0425,0.0623 z" style="fill:url(#paint16_linear)"/><path id="path128" d="m 40.2865,38.3351 c 0.092,0.0246 0.1718,0.018 0.2196,-0.0702 l -0.0277,-0.2173 c -0.0762,-0.075 -0.1525,-0.0601 -0.2287,-0.0019 z" style="fill:url(#paint17_linear)"/><path id="path130" d="m 40.5114,38.2958 c 0.0904,0.0147 0.1682,0.007 0.209,-0.0668 l -0.0263,-0.2068 c -0.0719,-0.0362 -0.144,-0.0633 -0.2177,-0.0018 z" style="fill:url(#paint18_linear)"/><path id="path132" d="m 42.1395,38.2495 c -0.371,0 -0.7264,-0.0217 -1.0546,-0.0615 l -0.0406,-0.0049 0.0191,-0.0395 c 0.074,-0.1537 0.1836,-0.2563 0.3223,-0.321 0.1386,-0.0646 0.3058,-0.0924 0.5001,-0.1024 0.3886,-0.02 0.8867,0.0319 1.4816,0.0243 0.5507,-0.0071 0.9927,-0.0228 1.3478,-0.0289 l 0.0125,0.0577 c -0.5307,0.2875 -1.4901,0.4762 -2.5882,0.4762 z m 0,-0.0607 c 1.0111,0 1.9047,-0.1637 2.4409,-0.4094 -0.3322,0.0071 -0.7232,0.0195 -1.2123,0.0258 -0.5982,0.0077 -1.0977,-0.0444 -1.4795,-0.0247 -0.191,0.0099 -0.3523,0.0377 -0.4814,0.0979 -0.116,0.0541 -0.205,0.1355 -0.2717,0.2539 0.3139,0.0362 0.6514,0.0565 1.004,0.0565 z" style="opacity:.9;fill:#191919"/><path id="path134" d="M 31,49.6658 C 42.3976,48.0093 46.1143,53.0949 56.2114,50.63" style="opacity:.97000002;stroke:url(#paint19_linear);stroke-width:2;stroke-linecap:round"/><path id="path136" d="m 58.8219,54 c -0.0179,-1e-4 -0.0562,-0.004 -0.077,-0.0122 l -0.0417,-0.0195 0.1031,-0.4667 -1.4872,-0.0036 c -0.0291,-10e-5 -0.0583,2e-4 -0.0875,4e-4 -0.0586,4e-4 -0.1176,0.0013 -0.1769,0.0028 -0.0869,0.0022 -0.1748,0.0054 -0.2629,0.0094 -0.0047,2e-4 -0.0094,5e-4 -0.0141,8e-4 -0.178,0.0081 -0.3576,0.0193 -0.5366,0.0316 -0.2422,0.0167 -0.4829,0.0352 -0.7165,0.0503 -0.1731,0.0113 -0.3423,0.0206 -0.5049,0.026 -0.1116,0.0038 -0.22,0.0059 -0.3247,0.0053 -0.0514,-3e-4 -0.1021,-0.0012 -0.1515,-0.0028 -0.0495,-0.0017 -0.0999,-0.0047 -0.1508,-0.0086 -0.0255,-0.0019 -0.051,-0.004 -0.0768,-0.0065 -0.077,-0.0073 -0.1554,-0.0171 -0.2334,-0.0284 -1e-4,0 -3e-4,0 -4e-4,0 -0.0521,-0.0075 -0.1039,-0.0159 -0.1557,-0.0247 -0.0517,-0.0089 -0.1033,-0.0182 -0.1541,-0.028 -0.0507,-0.0099 -0.1009,-0.0204 -0.1501,-0.0309 -10e-5,0 -2e-4,0 -3e-4,0 -0.0247,-0.0052 -0.0485,-0.0104 -0.0727,-0.0158 -0.0722,-0.0161 -0.1422,-0.0327 -0.2085,-0.0491 -10e-5,0 -2e-4,0 -4e-4,0 -0.0442,-0.011 -0.0868,-0.0218 -0.1277,-0.0325 -0.0818,-0.0214 -0.1563,-0.042 -0.2208,-0.0605 -0.0968,-0.0276 -0.1714,-0.051 -0.2156,-0.0649 -0.0295,-0.0093 -0.0454,-0.0146 -0.0454,-0.0146 l -0.1631,-0.0487 c -0.0108,-0.0032 -0.0212,-0.009 -0.0313,-0.017 -0.0034,-0.0028 -0.0067,-0.0057 -0.01,-0.009 -0.0131,-0.0127 -0.0257,-0.0295 -0.0377,-0.0499 0,-1e-4 10e-5,-3e-4 0,-4e-4 -0.0059,-0.0102 -0.0121,-0.0213 -0.0178,-0.0333 -1e-4,-10e-5 0,-3e-4 0,-4e-4 -0.0057,-0.012 -0.0114,-0.0248 -0.0168,-0.0385 0,-2e-4 1e-4,-3e-4 0,-4e-4 -0.0437,-0.1106 -0.0789,-0.2745 -0.1065,-0.4704 0,-1e-4 0,-3e-4 0,-4e-4 -4e-4,-0.0031 -7e-4,-0.0063 -0.0011,-0.0094 -0.006,-0.0432 -0.0118,-0.0882 -0.0171,-0.1343 -4e-4,-0.0031 -8e-4,-0.0062 -0.0011,-0.0093 -0.006,-0.0525 -0.0113,-0.1065 -0.0164,-0.162 0,-10e-5 0,-2e-4 0,-4e-4 -0.0026,-0.0276 -0.0051,-0.0557 -0.0075,-0.084 0,-1e-4 0,-2e-4 0,-4e-4 -0.0023,-0.0282 -0.0045,-0.0565 -0.0067,-0.0852 0,-1e-4 0,-3e-4 0,-4e-4 -0.0042,-0.0576 -0.0081,-0.1162 -0.0115,-0.1753 0,-2e-4 0,-3e-4 0,-4e-4 -0.0104,-0.1777 -0.0174,-0.3609 -0.0212,-0.5398 0,-10e-5 0,-3e-4 0,-4e-4 -0.0026,-0.1194 -0.0038,-0.2365 -0.0038,-0.3494 0,-0.0126 4e-4,-0.0255 4e-4,-0.0382 0,-0.0127 -4e-4,-0.0256 -4e-4,-0.0381 0,-0.1129 0.0012,-0.2301 0.0038,-0.3495 0,-1e-4 0,-2e-4 0,-4e-4 0.0038,-0.1789 0.0108,-0.362 0.0212,-0.5398 0,-1e-4 0,-2e-4 0,-4e-4 0.0034,-0.0591 0.0073,-0.1176 0.0115,-0.1753 0,-1e-4 0,-3e-4 0,-4e-4 0.0021,-0.0287 0.0044,-0.057 0.0067,-0.0852 0,-10e-5 0,-3e-4 0,-4e-4 0.0024,-0.0283 0.0049,-0.0564 0.0075,-0.084 0,-2e-4 0,-3e-4 0,-4e-4 0.0051,-0.0554 0.0104,-0.1095 0.0164,-0.162 3e-4,-0.0031 7e-4,-0.0061 0.0011,-0.0093 0.0053,-0.046 0.0111,-0.0911 0.0171,-0.1343 4e-4,-0.0031 7e-4,-0.0063 0.0011,-0.0094 0,-10e-5 0,-2e-4 0,-4e-4 0.0276,-0.1959 0.0628,-0.3598 0.1065,-0.4703 1e-4,-2e-4 0,-3e-4 0,-4e-4 0.0054,-0.0137 0.0111,-0.0266 0.0168,-0.0386 0,-1e-4 -1e-4,-3e-4 0,-4e-4 0.0057,-0.012 0.0119,-0.0231 0.0178,-0.0333 10e-5,-10e-5 0,-3e-4 0,-4e-4 0.012,-0.0204 0.0246,-0.0372 0.0377,-0.0499 0.0033,-0.0033 0.0066,-0.0062 0.01,-0.0089 0.0101,-0.0081 0.0205,-0.0139 0.0313,-0.0171 l 0.1631,-0.0487 c 0,0 0.0159,-0.0053 0.0454,-0.0146 0.0442,-0.0139 0.1188,-0.0372 0.2156,-0.0649 0.0645,-0.0185 0.139,-0.0391 0.2208,-0.0605 0.0409,-0.0107 0.0835,-0.0215 0.1277,-0.0325 2e-4,0 3e-4,1e-4 4e-4,0 0.0663,-0.0164 0.1363,-0.033 0.2085,-0.0491 0.0242,-0.0054 0.048,-0.0105 0.0727,-0.0158 1e-4,0 2e-4,0 3e-4,0 0.0492,-0.0105 0.0994,-0.021 0.1501,-0.0308 0.0508,-0.0099 0.1024,-0.0192 0.1541,-0.0281 0.0518,-0.0088 0.1036,-0.0172 0.1557,-0.0247 1e-4,0 2e-4,0 4e-4,0 0.078,-0.0113 0.1564,-0.021 0.2334,-0.0284 0.0258,-0.0025 0.0513,-0.0046 0.0767,-0.0065 0.051,-0.0039 0.1014,-0.0069 0.1509,-0.0085 0.0494,-0.0017 0.1001,-0.0026 0.1515,-0.0029 0.1047,-6e-4 0.2131,0.0016 0.3247,0.0053 0.1626,0.0055 0.3318,0.0147 0.5049,0.026 0.2336,0.0151 0.4743,0.0336 0.7165,0.0503 0.179,0.0123 0.3586,0.0235 0.5365,0.0317 0.0048,2e-4 0.0095,6e-4 0.0142,8e-4 0.0881,0.0039 0.176,0.0071 0.2629,0.0093 0.0593,0.0015 0.1183,0.0024 0.1769,0.0028 0.0292,3e-4 0.0584,5e-4 0.0875,4e-4 l 1.4872,-0.0036 -0.1031,-0.4667 0.0417,-0.0195 C 58.7657,48.004 58.804,48.0001 58.8219,48 c 0.0101,0 0.0209,10e-4 0.0321,0.0033 0.0037,7e-4 0.0074,0.0018 0.0111,0.0028 0.0037,10e-4 0.0076,0.002 0.0112,0.0033 0.0075,0.0025 0.0151,0.0054 0.0223,0.0089 0.0218,0.0103 0.0422,0.0251 0.057,0.043 1e-4,10e-5 3e-4,3e-4 4e-4,4e-4 0.0074,0.0091 0.0132,0.0189 0.0175,0.0296 l 0.1448,0.4067 1.31,-0.0033 c 0.0089,-0.0048 0.0176,-0.0096 0.0265,-0.0142 0.0355,-0.0181 0.0704,-0.0337 0.1053,-0.047 0.0175,-0.0067 0.0348,-0.0127 0.0522,-0.0183 0.0607,-0.0196 0.1214,-0.0331 0.1828,-0.0422 0.0351,-0.0052 0.0706,-0.009 0.1065,-0.0118 0.0179,-0.0014 0.0361,-0.0023 0.0544,-0.0032 0.0364,-0.0018 0.0731,-0.0028 0.1109,-0.0033 0.0757,-9e-4 0.1547,0 0.2383,0 0.1241,0 0.2422,0.0069 0.3549,0.0203 0.0451,0.0054 0.0893,0.0117 0.1326,0.0191 0.0866,0.0148 0.1695,0.034 0.2491,0.0568 0.0199,0.0057 0.0397,0.0117 0.0592,0.0179 0.0584,0.0185 0.1145,0.0393 0.169,0.0621 0.0182,0.0076 0.0363,0.015 0.054,0.0231 0.0355,0.0161 0.0701,0.0332 0.1039,0.0511 0.0169,0.009 0.0338,0.0182 0.0503,0.0276 0.033,0.0188 0.0651,0.0387 0.0964,0.0593 0.0157,0.0103 0.031,0.0209 0.0462,0.0316 0.0762,0.0535 0.1473,0.1121 0.2134,0.1758 0.0527,0.0509 0.1025,0.1049 0.1489,0.1619 10e-5,10e-5 0,3e-4 0,4e-4 0.0116,0.0142 0.0231,0.0285 0.0343,0.043 0,10e-5 -1e-4,3e-4 0,4e-4 0.0112,0.0146 0.0223,0.0293 0.0331,0.0443 1e-4,0 0,3e-4 0,4e-4 0.0325,0.0449 0.0633,0.0911 0.0924,0.1392 0,10e-5 -10e-5,3e-4 0,4e-4 0.0096,0.0159 0.0194,0.032 0.0286,0.0483 10e-5,1e-4 0,3e-4 0,4e-4 0.0279,0.049 0.0545,0.0994 0.079,0.1514 0,1e-4 -1e-4,3e-4 0,4e-4 0.0081,0.0172 0.016,0.0347 0.0238,0.0523 1e-4,10e-5 0,3e-4 0,4e-4 0.0078,0.0176 0.0157,0.0353 0.0231,0.0532 10e-5,1e-4 0,3e-4 0,4e-4 0.0149,0.0359 0.0291,0.0721 0.0424,0.1092 1e-4,1e-4 0,3e-4 0,4e-4 0.0067,0.0184 0.0131,0.0372 0.0194,0.056 0,10e-5 0,3e-4 0,4e-4 0.0063,0.0187 0.0127,0.0377 0.0186,0.0568 0.006,0.019 0.0119,0.0383 0.0175,0.0576 1e-4,10e-5 0,3e-4 0,4e-4 0.0056,0.0194 0.0112,0.0389 0.0164,0.0585 10e-5,1e-4 0,3e-4 0,4e-4 0.0053,0.0196 0.0104,0.0394 0.0153,0.0592 0,2e-4 -10e-5,3e-4 0,4e-4 0.0147,0.0599 0.0282,0.1209 0.0398,0.1831 v 4e-4 c 0.0039,0.0206 0.0073,0.0416 0.0108,0.0625 v 4e-4 c 0.0247,0.147 0.0413,0.2995 0.0495,0.4574 1e-4,10e-5 0,2e-4 0,4e-4 0.0012,0.0224 0.0022,0.0451 0.003,0.0677 0,2e-4 0,3e-4 0,4e-4 0.0017,0.0455 0.003,0.0911 0.0034,0.1372 0,10e-5 0,3e-4 0,4e-4 2e-4,0.0232 1e-4,0.0465 0,0.0698 0,0.0083 -3e-4,0.0165 -4e-4,0.0248 1e-4,0.0082 4e-4,0.0165 4e-4,0.0247 1e-4,0.0234 2e-4,0.0467 0,0.0699 0,1e-4 0,2e-4 0,4e-4 -4e-4,0.0461 -0.0017,0.0917 -0.0034,0.1371 0,2e-4 0,3e-4 0,4e-4 -8e-4,0.0227 -0.0018,0.0454 -0.003,0.0678 0,1e-4 1e-4,3e-4 0,4e-4 -0.0082,0.1579 -0.0248,0.3104 -0.0495,0.4574 v 4e-4 c -0.0035,0.0209 -0.0069,0.0419 -0.0108,0.0625 v 4e-4 c -0.0116,0.0622 -0.0251,0.1232 -0.0398,0.183 -10e-5,2e-4 0,3e-4 0,5e-4 -0.0049,0.0198 -0.01,0.0396 -0.0153,0.0592 0,10e-5 10e-5,3e-4 0,4e-4 -0.0052,0.0196 -0.0108,0.0391 -0.0164,0.0585 0,1e-4 1e-4,2e-4 0,4e-4 -0.0056,0.0193 -0.0115,0.0385 -0.0175,0.0576 -0.0059,0.019 -0.0123,0.038 -0.0186,0.0568 0,1e-4 0,3e-4 0,4e-4 -0.0063,0.0188 -0.0127,0.0375 -0.0194,0.056 0,1e-4 1e-4,3e-4 0,4e-4 -0.0133,0.0371 -0.0275,0.0733 -0.0424,0.1092 0,1e-4 10e-5,3e-4 0,4e-4 -0.0074,0.0179 -0.0153,0.0356 -0.0231,0.0532 0,1e-4 1e-4,3e-4 0,4e-4 -0.0078,0.0175 -0.0157,0.0351 -0.0238,0.0523 -1e-4,10e-5 0,3e-4 0,4e-4 -0.0245,0.052 -0.0511,0.1023 -0.079,0.1514 0,10e-5 10e-5,3e-4 0,4e-4 -0.0092,0.0163 -0.019,0.0324 -0.0286,0.0483 -10e-5,1e-4 0,3e-4 0,4e-4 -0.0291,0.0481 -0.0599,0.0943 -0.0924,0.1392 0,10e-5 1e-4,3e-4 0,4e-4 -0.0108,0.0149 -0.0219,0.0297 -0.0331,0.0443 -1e-4,0 0,3e-4 0,4e-4 -0.0112,0.0145 -0.0227,0.0288 -0.0343,0.043 0,1e-4 10e-5,3e-4 0,4e-4 -0.0464,0.057 -0.0962,0.111 -0.1489,0.1619 -0.0661,0.0637 -0.1372,0.1222 -0.2134,0.1758 -0.0152,0.0107 -0.0305,0.0213 -0.0462,0.0316 -0.0313,0.0206 -0.0634,0.0404 -0.0964,0.0593 -0.0165,0.0094 -0.0334,0.0186 -0.0503,0.0276 -0.0338,0.0179 -0.0684,0.035 -0.1039,0.0511 -0.0177,0.0081 -0.0358,0.0155 -0.054,0.0231 -0.0545,0.0228 -0.1106,0.0436 -0.169,0.0621 -0.0195,0.0062 -0.0393,0.0122 -0.0592,0.0179 -0.0796,0.0228 -0.1625,0.042 -0.2491,0.0568 -0.0433,0.0074 -0.0875,0.0137 -0.1326,0.0191 -0.1127,0.0134 -0.2308,0.0203 -0.3549,0.0203 -0.0836,0 -0.1626,9e-4 -0.2383,0 -0.0378,-5e-4 -0.0745,-0.0015 -0.1109,-0.0033 -0.0182,-9e-4 -0.0365,-0.0018 -0.0544,-0.0032 -0.0359,-0.0028 -0.0714,-0.0066 -0.1065,-0.0118 -0.0614,-0.0091 -0.1221,-0.0226 -0.1828,-0.0422 -0.0174,-0.0056 -0.0347,-0.0116 -0.0522,-0.0183 -0.0349,-0.0133 -0.0698,-0.0289 -0.1053,-0.047 -0.0089,-0.0046 -0.0176,-0.0094 -0.0265,-0.0142 l -1.31,-0.0033 -0.1448,0.4067 c -0.0043,0.0108 -0.0101,0.0205 -0.0175,0.0296 -1e-4,1e-4 -3e-4,3e-4 -4e-4,4e-4 -0.0148,0.0179 -0.0352,0.0327 -0.057,0.043 -0.0072,0.0035 -0.0148,0.0064 -0.0223,0.009 -0.0036,0.0012 -0.0075,0.0022 -0.0112,0.0032 -0.0037,0.001 -0.0074,0.0021 -0.0111,0.0028 C 58.8429,53.999 58.832,54.0001 58.8219,54 Z" style="fill:#000;fill-opacity:.99607801;stroke:#191919;stroke-width:.0924867"/><path id="path138" d="m 58.8219,54 c -0.0179,-1e-4 -0.0562,-0.004 -0.077,-0.0122 l -0.0417,-0.0195 0.1031,-0.4655 -1.4872,-0.0036 c -0.929,-0.0022 -1.9843,0.1494 -2.7756,0.1234 -0.7914,-0.0261 -1.8127,-0.3637 -1.8127,-0.3637 l -0.1631,-0.0491 c -0.2294,-0.0688 -0.3065,-1.2645 -0.3065,-2.166 0,-0.0144 3e-4,-0.0292 4e-4,-0.0438 -1e-4,-0.0146 -4e-4,-0.0294 -4e-4,-0.0438 0,-0.9015 0.0771,-2.0972 0.3065,-2.166 l 0.1631,-0.0491 c 0,0 1.0213,-0.3376 1.8127,-0.3637 0.7913,-0.026 1.8466,0.1256 2.7756,0.1234 l 1.4872,-0.0036 -0.1031,-0.4655 0.0417,-0.0195 C 58.7657,48.004 58.804,48.0001 58.8219,48 c 0.0102,-1e-4 0.021,10e-4 0.0321,0.0032 0.0037,8e-4 0.0074,0.0019 0.0111,0.0029 0.0037,10e-4 0.0076,0.002 0.0112,0.0032 0.0075,0.0025 0.0151,0.0055 0.0223,0.009 0.0218,0.0103 0.0422,0.0247 0.057,0.0426 1e-4,1e-4 3e-4,2e-4 4e-4,4e-4 0.0074,0.009 0.0132,0.0189 0.0175,0.0296 l 0.1448,0.4059 1.31,-0.0033 c 0.2848,-0.1551 0.5423,-0.1392 0.8769,-0.1392 1.5878,0 2.2358,1.1245 2.2283,2.6153 0,0.0101 -2e-4,0.0203 -4e-4,0.0304 2e-4,0.0101 4e-4,0.0203 4e-4,0.0304 0.0075,1.4908 -0.6405,2.6153 -2.2283,2.6153 -0.3346,0 -0.5921,0.0159 -0.8769,-0.1392 l -1.31,-0.0033 -0.1448,0.4059 c -0.0043,0.0107 -0.0101,0.0206 -0.0175,0.0296 -1e-4,2e-4 -3e-4,3e-4 -4e-4,4e-4 -0.0148,0.0179 -0.0352,0.0323 -0.057,0.0426 -0.0072,0.0035 -0.0148,0.0065 -0.0223,0.009 -0.0036,0.0012 -0.0075,0.0022 -0.0112,0.0032 -0.0037,0.001 -0.0074,0.0021 -0.0111,0.0029 C 58.8429,53.999 58.8321,54.0001 58.8219,54 Z" style="fill:#7f7f7f"/><path id="path140" d="m 56.3174,49.3042 c -0.3976,0 -0.7782,-0.0234 -1.1298,-0.0657 0.3058,-0.6327 1.1676,-0.3931 2.4494,-0.4095 0.5921,-0.0076 1.067,-0.0245 1.4482,-0.0309 -0.562,0.3031 -1.5911,0.5061 -2.7678,0.5061 z" style="opacity:.9;fill:#262626;fill-opacity:.99607801"/><path id="path142" d="m 56.3174,49.3042 c -0.0382,0 -0.076,-4e-4 -0.1139,-8e-4 0.0097,-0.2101 0.0766,-0.393 0.1739,-0.5045 0.0557,10e-4 0.1131,0.0025 0.172,0.0045 -0.102,0.1064 -0.1739,0.2886 -0.1873,0.5008 -0.0149,0 -0.0297,0 -0.0447,0 z" style="opacity:.5;fill:#000;fill-opacity:.99607801"/><path id="path144" d="m 63.3321,49.665 -0.0607,-0.0077 c -0.2568,-0.0326 -0.4491,-0.3374 -0.4681,-0.7082 l -0.0045,-0.0925 0.0626,0.0629 c 0.1893,0.1907 0.3372,0.4222 0.4457,0.6851 z" style="fill:#212121;stroke:#191919;stroke-width:.033031"/><path id="path146" d="m 60.8827,49.5218 c 0,0 0.9494,0.2935 1.2557,0.4154 0.3198,0.1273 1.178,0.5084 1.178,0.5084 0,0 -0.1042,-0.5516 -0.3633,-0.7522 -0.9202,-0.7126 -2.7726,-0.6994 -2.7726,-0.6994" style="opacity:.5;stroke:#292929;stroke-width:.0396372;stroke-linecap:round;stroke-linejoin:round"/><path id="path148" d="m 61.9134,49.79 -0.0529,-0.0304 c 0.0118,-0.015 0.0214,-0.0315 0.0283,-0.0499 C 61.9459,49.5575 61.7609,49.33 61.5685,49.245 61.5624,49.2423 61.5469,49.2341 61.528,49.2235 l 0.1623,0.0503 c 0.2062,0.1098 0.3273,0.2998 0.2741,0.4416 -0.0109,0.029 -0.0283,0.0541 -0.051,0.0746 z" style="fill:url(#paint20_linear)"/><path id="path150" d="m 62.0157,49.8481 -0.0529,-0.0304 c 0.0118,-0.015 0.0214,-0.0315 0.0283,-0.0499 0.0572,-0.1522 -0.1279,-0.3797 -0.3202,-0.4647 -0.0062,-0.0027 -0.0216,-0.0109 -0.0406,-0.0215 l 0.1624,0.0503 c 0.2062,0.1099 0.3273,0.2998 0.274,0.4416 -0.0109,0.029 -0.0283,0.0541 -0.051,0.0746 z" style="fill:url(#paint21_linear)"/><path id="path152" d="m 62.0894,49.8662 -0.0528,-0.0304 c 0.0117,-0.0151 0.0214,-0.0316 0.0283,-0.0499 0.0571,-0.1522 -0.128,-0.3797 -0.3203,-0.4647 -0.0061,-0.0028 -0.0216,-0.011 -0.0406,-0.0215 l 0.1624,0.0503 c 0.2062,0.1098 0.3273,0.2997 0.2741,0.4415 -0.011,0.0291 -0.0283,0.0541 -0.0511,0.0747 z" style="fill:url(#paint22_linear)"/><path id="path154" d="m 62.2908,49.9219 -0.0737,-0.024 c 0.0114,-0.0222 0.0197,-0.0458 0.0242,-0.071 0.0371,-0.2082 -0.2498,-0.4452 -0.5128,-0.5 -0.0404,-0.0084 -0.3442,-0.1114 -0.3832,-0.1143 V 49.159 l 0.4938,0.1578 c 0.3132,0.0713 0.5356,0.2915 0.499,0.4967 -0.0071,0.0398 -0.0233,0.0761 -0.0473,0.1084 z" style="fill:url(#paint23_linear)"/><path id="path156" d="m 62.2908,49.9219 -0.0737,-0.024 c 0.0114,-0.0222 0.0197,-0.0458 0.0242,-0.071 0.0371,-0.2082 -0.2498,-0.4452 -0.5128,-0.5 -0.0404,-0.0084 -0.3442,-0.1114 -0.3832,-0.1143 V 49.159 l 0.4938,0.1578 c 0.3132,0.0713 0.5356,0.2915 0.499,0.4967 -0.0071,0.0398 -0.0233,0.0761 -0.0473,0.1084 z" style="fill:url(#paint24_linear)"/><path id="path158" d="m 61.7604,49.7307 -0.0473,-0.0272 c 0.0106,-0.0134 0.0191,-0.0282 0.0253,-0.0446 0.0511,-0.1359 -0.1143,-0.3392 -0.2861,-0.4151 -0.0055,-0.0024 -0.0193,-0.0097 -0.0362,-0.0192 l 0.145,0.0449 c 0.1842,0.0982 0.2924,0.2678 0.2448,0.3945 -0.0097,0.026 -0.0252,0.0483 -0.0455,0.0667 z" style="fill:url(#paint25_linear)"/><path id="path160" d="m 61.5957,49.6843 -0.0472,-0.0272 c 0.0105,-0.0134 0.0191,-0.0281 0.0253,-0.0446 0.0511,-0.1359 -0.1143,-0.3391 -0.2861,-0.4151 -0.0055,-0.0024 -0.0193,-0.0097 -0.0362,-0.0192 l 0.145,0.045 c 0.1842,0.0981 0.2924,0.2677 0.2448,0.3944 -0.0097,0.026 -0.0253,0.0483 -0.0455,0.0667 z" style="fill:url(#paint26_linear)"/><path id="path162" d="m 54.3265,49.4284 c 0.0988,0.0263 0.1845,0.0192 0.2359,-0.0751 l -0.0297,-0.2325 c -0.0819,-0.0801 -0.1639,-0.0642 -0.2458,-0.002 z" style="fill:url(#paint27_linear)"/><path id="path164" d="m 54.5682,49.3855 c 0.0971,0.0157 0.1807,0.0075 0.2245,-0.0715 l -0.0283,-0.2212 c -0.0772,-0.0387 -0.1547,-0.0677 -0.2339,-0.002 z" style="fill:url(#paint28_linear)"/><path id="path166" d="m 56.3174,49.3372 c -0.3987,0 -0.7804,-0.0233 -1.1331,-0.0658 l -0.0436,-0.0053 0.0205,-0.0422 c 0.0795,-0.1644 0.1973,-0.2742 0.3463,-0.3433 0.1489,-0.0692 0.3285,-0.0989 0.5373,-0.1096 0.4175,-0.0214 0.9527,0.0342 1.5919,0.026 0.5917,-0.0076 1.0665,-0.0244 1.4481,-0.0309 l 0.0134,0.0617 c -0.5702,0.3075 -1.601,0.5094 -2.7808,0.5094 z m 0,-0.065 c 1.0863,0 2.0465,-0.175 2.6225,-0.4379 -0.3569,0.0076 -0.777,0.0209 -1.3025,0.0276 -0.6427,0.0083 -1.1794,-0.0474 -1.5896,-0.0264 -0.2052,0.0106 -0.3786,0.0404 -0.5172,0.1047 -0.1246,0.0579 -0.2203,0.1449 -0.292,0.2716 0.3373,0.0387 0.6999,0.0604 1.0788,0.0604 z" style="opacity:.9;fill:#191919"/><path id="path168" d="m 54.651,52.5234 -0.9264,-0.1619 c -0.3235,-0.0565 -0.5833,-0.6334 -0.6077,-1.3616 0.0244,-0.7282 0.2842,-1.3051 0.6077,-1.3616 l 0.9264,-0.1619 c 0.1585,0 0.286,0.139 0.286,0.3116 v 2.4237 c 0,0.1727 -0.1275,0.3117 -0.286,0.3117 z" style="opacity:.9;fill:#262626;fill-opacity:.99607801;stroke:#191919;stroke-width:.033031"/><path id="path170" d="m 59.7923,52.9675 c -0.0354,0 -0.0702,-0.0043 -0.1047,-0.0126 -1e-4,2e-4 -2e-4,3e-4 -3e-4,5e-4 l -0.7608,-0.1599 c -0.2112,-0.0858 -0.3813,-0.1854 -0.3813,-0.4156 v -2.7606 c 0,-0.2302 0.1701,-0.3298 0.3813,-0.4156 l 0.7608,-0.1599 c 10e-5,2e-4 2e-4,3e-4 3e-4,4e-4 0.0345,-0.0082 0.0693,-0.0125 0.1047,-0.0125 0.5409,0 0.9794,0.7449 0.9808,1.9679 -0.0014,1.223 -0.4399,1.9679 -0.9808,1.9679 z" style="opacity:.9;fill:#262626;fill-opacity:.99607801;stroke:#191919;stroke-width:.033031"/><path id="path172" d="m 56.3174,52.6952 c -0.3976,0 -0.7782,0.0234 -1.1298,0.0658 0.3058,0.6326 1.1676,0.393 2.4494,0.4095 0.5921,0.0076 1.067,0.0244 1.4482,0.0308 -0.562,-0.303 -1.5911,-0.5061 -2.7678,-0.5061 z" style="opacity:.9;fill:#262626;fill-opacity:.99607801"/><path id="path174" d="m 56.3174,52.6957 c -0.0382,0 -0.076,3e-4 -0.1139,8e-4 0.0097,0.21 0.0766,0.3929 0.1739,0.5044 0.0557,-10e-4 0.1131,-0.0025 0.172,-0.0044 -0.102,-0.1064 -0.1739,-0.2887 -0.1873,-0.5008 -0.0149,-1e-4 -0.0297,0 -0.0447,0 z" style="opacity:.5;fill:#000;fill-opacity:.99607801"/><path id="path176" d="m 63.3321,52.3354 -0.0607,0.0077 c -0.2568,0.0326 -0.4491,0.3374 -0.4681,0.7082 l -0.0045,0.0925 0.0626,-0.0629 c 0.1893,-0.1907 0.3372,-0.4222 0.4457,-0.6851 z" style="fill:#212121;stroke:#191919;stroke-width:.033031"/><path id="path178" d="m 60.8827,52.478 c 0,0 0.9494,-0.2935 1.2557,-0.4154 0.3198,-0.1272 1.178,-0.5083 1.178,-0.5083 0,0 -0.1042,0.5515 -0.3633,0.7521 -0.9202,0.7126 -2.7726,0.6994 -2.7726,0.6994" style="opacity:.5;stroke:#292929;stroke-width:.0396372;stroke-linecap:round;stroke-linejoin:round"/><path id="path180" d="m 61.9134,52.2101 -0.0529,0.0304 c 0.0118,0.015 0.0214,0.0315 0.0283,0.0499 0.0571,0.1522 -0.1279,0.3797 -0.3203,0.4647 -0.0061,0.0027 -0.0216,0.0109 -0.0405,0.0215 l 0.1623,-0.0503 c 0.2062,-0.1099 0.3273,-0.2998 0.2741,-0.4416 -0.0109,-0.029 -0.0283,-0.0541 -0.051,-0.0746 z" style="fill:url(#paint29_linear)"/><path id="path182" d="m 62.0157,52.1522 -0.0529,0.0304 c 0.0118,0.0151 0.0214,0.0316 0.0283,0.0499 0.0572,0.1522 -0.1279,0.3797 -0.3202,0.4647 -0.0062,0.0028 -0.0216,0.011 -0.0406,0.0216 l 0.1624,-0.0504 c 0.2062,-0.1098 0.3273,-0.2997 0.274,-0.4415 -0.0109,-0.0291 -0.0283,-0.0541 -0.051,-0.0747 z" style="fill:url(#paint30_linear)"/><path id="path184" d="m 62.0894,52.1336 -0.0528,0.0305 c 0.0117,0.015 0.0214,0.0315 0.0283,0.0499 0.0571,0.1522 -0.128,0.3797 -0.3203,0.4647 -0.0061,0.0027 -0.0216,0.0109 -0.0406,0.0215 l 0.1624,-0.0503 c 0.2062,-0.1099 0.3273,-0.2998 0.2741,-0.4416 -0.011,-0.029 -0.0283,-0.0541 -0.0511,-0.0747 z" style="fill:url(#paint31_linear)"/><path id="path186" d="m 61.7604,52.2695 -0.0473,0.0272 c 0.0106,0.0134 0.0191,0.0282 0.0253,0.0446 0.0511,0.1359 -0.1143,0.3392 -0.2861,0.4151 -0.0055,0.0025 -0.0193,0.0098 -0.0362,0.0192 l 0.145,-0.0449 c 0.1842,-0.0981 0.2924,-0.2678 0.2448,-0.3945 -0.0097,-0.0259 -0.0252,-0.0483 -0.0455,-0.0667 z" style="fill:url(#paint32_linear)"/><path id="path188" d="m 61.5957,52.3161 -0.0472,0.0272 c 0.0105,0.0135 0.0191,0.0282 0.0253,0.0446 0.0511,0.136 -0.1143,0.3392 -0.2861,0.4152 -0.0055,0.0024 -0.0193,0.0097 -0.0362,0.0192 l 0.145,-0.045 c 0.1842,-0.0981 0.2924,-0.2678 0.2448,-0.3944 -0.0097,-0.026 -0.0253,-0.0484 -0.0455,-0.0668 z" style="fill:url(#paint33_linear)"/><path id="path190" d="m 56.3174,52.6638 c -0.3987,0 -0.7804,0.0232 -1.1331,0.0657 l -0.0436,0.0053 0.0205,0.0422 c 0.0795,0.1645 0.1973,0.2742 0.3463,0.3433 0.1489,0.0692 0.3285,0.0989 0.5373,0.1096 0.4175,0.0214 0.9527,-0.0342 1.5919,-0.026 0.5917,0.0076 1.0665,0.0244 1.4481,0.0309 l 0.0134,-0.0617 c -0.5702,-0.3075 -1.601,-0.5093 -2.7808,-0.5093 z m 0,0.0649 c 1.0863,0 2.0465,0.175 2.6225,0.4379 -0.3569,-0.0076 -0.777,-0.0209 -1.3025,-0.0276 -0.6427,-0.0082 -1.1794,0.0474 -1.5896,0.0264 -0.2052,-0.0105 -0.3786,-0.0403 -0.5172,-0.1047 -0.1246,-0.0578 -0.2203,-0.1449 -0.292,-0.2715 0.3373,-0.0388 0.6999,-0.0605 1.0788,-0.0605 z" style="opacity:.9;fill:#191919"/></g><defs id="defs362"><linearGradient id="paint0_linear" x1="42.373" x2="20.096" y1="39.801" y2="44.025" gradientUnits="userSpaceOnUse"><stop id="stop192" stop-color="#D41A1A"/><stop id="stop194" offset="1" stop-color="#F30000" stop-opacity="0"/></linearGradient><linearGradient id="paint1_linear" x1="47.455" x2="47.194" y1="41.2" y2="41.122" gradientUnits="userSpaceOnUse"><stop id="stop197" stop-color="#1A1A1A"/><stop id="stop199" offset="1" stop-color="#F30000" stop-opacity="0"/></linearGradient><linearGradient id="paint2_linear" x1="47.785" x2="47.654" y1="41.038" y2="41.039" gradientUnits="userSpaceOnUse"><stop id="stop202" stop-color="#1A1A1A"/><stop id="stop204" offset="1" stop-color="#F30000" stop-opacity="0"/></linearGradient><linearGradient id="paint3_linear" x1="47.764" x2="47.053" y1="41.132" y2="41.075" gradientUnits="userSpaceOnUse"><stop id="stop207" stop-color="#1A1A1A"/><stop id="stop209" offset="1" stop-color="#F30000" stop-opacity="0"/></linearGradient><linearGradient id="paint4_linear" x1="47.888" x2="47.733" y1="41.208" y2="41.135" gradientUnits="userSpaceOnUse"><stop id="stop212" stop-color="#1A1A1A"/><stop id="stop214" offset="1" stop-color="#F30000" stop-opacity="0"/></linearGradient><linearGradient id="paint5_linear" x1="47.705" x2="47.157" y1="41.325" y2="40.756" gradientUnits="userSpaceOnUse"><stop id="stop217" stop-color="#1A1A1A"/><stop id="stop219" offset="1" stop-color="#F30000" stop-opacity="0"/></linearGradient><linearGradient id="paint6_linear" x1="47.54" x2="46.722" y1="41.127" y2="41.138" gradientUnits="userSpaceOnUse"><stop id="stop222" stop-color="#1A1A1A"/><stop id="stop224" offset="1" stop-color="#F30000" stop-opacity="0"/></linearGradient><linearGradient id="paint7_linear" x1="47.308" x2="46.636" y1="41.269" y2="41.233" gradientUnits="userSpaceOnUse"><stop id="stop227" stop-color="#1A1A1A"/><stop id="stop229" offset="1" stop-color="#F30000" stop-opacity="0"/></linearGradient><linearGradient id="paint8_linear" x1="40.506" x2="40.244" y1="41.479" y2="41.389" gradientUnits="userSpaceOnUse"><stop id="stop232" stop-color="#1A1A1A"/><stop id="stop234" offset="1" stop-color="#F30000" stop-opacity="0"/></linearGradient><linearGradient id="paint9_linear" x1="40.72" x2="40.475" y1="41.509" y2="41.474" gradientUnits="userSpaceOnUse"><stop id="stop237" stop-color="#1A1A1A"/><stop id="stop239" offset="1" stop-color="#F30000" stop-opacity="0"/></linearGradient><linearGradient id="paint10_linear" x1="47.455" x2="47.194" y1="38.409" y2="38.488" gradientUnits="userSpaceOnUse"><stop id="stop242" stop-color="#1A1A1A"/><stop id="stop244" offset="1" stop-color="#F30000" stop-opacity="0"/></linearGradient><linearGradient id="paint11_linear" x1="47.785" x2="47.654" y1="38.571" y2="38.571" gradientUnits="userSpaceOnUse"><stop id="stop247" stop-color="#1A1A1A"/><stop id="stop249" offset="1" stop-color="#F30000" stop-opacity="0"/></linearGradient><linearGradient id="paint12_linear" x1="47.764" x2="47.053" y1="38.478" y2="38.535" gradientUnits="userSpaceOnUse"><stop id="stop252" stop-color="#1A1A1A"/><stop id="stop254" offset="1" stop-color="#F30000" stop-opacity="0"/></linearGradient><linearGradient id="paint13_linear" x1="47.888" x2="47.733" y1="38.401" y2="38.475" gradientUnits="userSpaceOnUse"><stop id="stop257" stop-color="#1A1A1A"/><stop id="stop259" offset="1" stop-color="#F30000" stop-opacity="0"/></linearGradient><linearGradient id="paint14_linear" x1="47.705" x2="47.157" y1="38.284" y2="38.854" gradientUnits="userSpaceOnUse"><stop id="stop262" stop-color="#1A1A1A"/><stop id="stop264" offset="1" stop-color="#F30000" stop-opacity="0"/></linearGradient><linearGradient id="paint15_linear" x1="47.54" x2="46.722" y1="38.483" y2="38.472" gradientUnits="userSpaceOnUse"><stop id="stop267" stop-color="#1A1A1A"/><stop id="stop269" offset="1" stop-color="#F30000" stop-opacity="0"/></linearGradient><linearGradient id="paint16_linear" x1="47.308" x2="46.636" y1="38.34" y2="38.376" gradientUnits="userSpaceOnUse"><stop id="stop272" stop-color="#1A1A1A"/><stop id="stop274" offset="1" stop-color="#F30000" stop-opacity="0"/></linearGradient><linearGradient id="paint17_linear" x1="40.506" x2="40.244" y1="38.13" y2="38.221" gradientUnits="userSpaceOnUse"><stop id="stop277" stop-color="#1A1A1A"/><stop id="stop279" offset="1" stop-color="#F30000" stop-opacity="0"/></linearGradient><linearGradient id="paint18_linear" x1="40.72" x2="40.475" y1="38.101" y2="38.136" gradientUnits="userSpaceOnUse"><stop id="stop282" stop-color="#1A1A1A"/><stop id="stop284" offset="1" stop-color="#F30000" stop-opacity="0"/></linearGradient><linearGradient id="paint19_linear" x1="56.636" x2="30.655" y1="51.578" y2="48.112" gradientUnits="userSpaceOnUse"><stop id="stop287"/><stop id="stop289" offset="1" stop-color="#CCC" stop-opacity="0"/></linearGradient><linearGradient id="paint20_linear" x1="68.118" x2="67.664" y1="38.531" y2="38.633" gradientUnits="userSpaceOnUse"><stop id="stop292" stop-color="#1A1A1A"/><stop id="stop294" offset="1" stop-color="#F30000" stop-opacity="0"/></linearGradient><linearGradient id="paint21_linear" x1="68.684" x2="68.46" y1="38.809" y2="38.808" gradientUnits="userSpaceOnUse"><stop id="stop297" stop-color="#1A1A1A"/><stop id="stop299" offset="1" stop-color="#F30000" stop-opacity="0"/></linearGradient><linearGradient id="paint22_linear" x1="68.649" x2="67.425" y1="38.649" y2="38.721" gradientUnits="userSpaceOnUse"><stop id="stop302" stop-color="#1A1A1A"/><stop id="stop304" offset="1" stop-color="#F30000" stop-opacity="0"/></linearGradient><linearGradient id="paint23_linear" x1="68.853" x2="68.648" y1="38.518" y2="38.717" gradientUnits="userSpaceOnUse"><stop id="stop307" stop-color="#1A1A1A"/><stop id="stop309" offset="1" stop-color="#F30000" stop-opacity="0"/></linearGradient><linearGradient id="paint24_linear" x1="68.539" x2="67.976" y1="38.318" y2="39.511" gradientUnits="userSpaceOnUse"><stop id="stop312" stop-color="#1A1A1A"/><stop id="stop314" offset="1" stop-color="#F30000" stop-opacity="0"/></linearGradient><linearGradient id="paint25_linear" x1="68.265" x2="66.858" y1="38.658" y2="38.644" gradientUnits="userSpaceOnUse"><stop id="stop317" stop-color="#1A1A1A"/><stop id="stop319" offset="1" stop-color="#F30000" stop-opacity="0"/></linearGradient><linearGradient id="paint26_linear" x1="67.866" x2="66.711" y1="38.415" y2="38.461" gradientUnits="userSpaceOnUse"><stop id="stop322" stop-color="#1A1A1A"/><stop id="stop324" offset="1" stop-color="#F30000" stop-opacity="0"/></linearGradient><linearGradient id="paint27_linear" x1="56.183" x2="55.724" y1="37.543" y2="37.65" gradientUnits="userSpaceOnUse"><stop id="stop327" stop-color="#1A1A1A"/><stop id="stop329" offset="1" stop-color="#F30000" stop-opacity="0"/></linearGradient><linearGradient id="paint28_linear" x1="56.551" x2="56.129" y1="37.693" y2="37.738" gradientUnits="userSpaceOnUse"><stop id="stop332" stop-color="#1A1A1A"/><stop id="stop334" offset="1" stop-color="#F30000" stop-opacity="0"/></linearGradient><linearGradient id="paint29_linear" x1="68.118" x2="67.664" y1="43.301" y2="43.199" gradientUnits="userSpaceOnUse"><stop id="stop337" stop-color="#1A1A1A"/><stop id="stop339" offset="1" stop-color="#F30000" stop-opacity="0"/></linearGradient><linearGradient id="paint30_linear" x1="68.684" x2="68.46" y1="43.024" y2="43.025" gradientUnits="userSpaceOnUse"><stop id="stop342" stop-color="#1A1A1A"/><stop id="stop344" offset="1" stop-color="#F30000" stop-opacity="0"/></linearGradient><linearGradient id="paint31_linear" x1="68.649" x2="67.425" y1="43.184" y2="43.111" gradientUnits="userSpaceOnUse"><stop id="stop347" stop-color="#1A1A1A"/><stop id="stop349" offset="1" stop-color="#F30000" stop-opacity="0"/></linearGradient><linearGradient id="paint32_linear" x1="68.265" x2="66.858" y1="43.175" y2="43.189" gradientUnits="userSpaceOnUse"><stop id="stop352" stop-color="#1A1A1A"/><stop id="stop354" offset="1" stop-color="#F30000" stop-opacity="0"/></linearGradient><linearGradient id="paint33_linear" x1="67.866" x2="66.711" y1="43.419" y2="43.372" gradientUnits="userSpaceOnUse"><stop id="stop357" stop-color="#1A1A1A"/><stop id="stop359" offset="1" stop-color="#F30000" stop-opacity="0"/></linearGradient></defs></svg>